# xmcd
# 
# Track frame offsets:
#     150
#     10592
#     21783
#     35208
#     48894
#     57835
#     67767
#     79073
#     92926
#     105867
#     116861
#     128871
#     141634
#     155068
#     167106
#     179559
#     189205
#     202003
#     214829
#     221851
#     235015
#     246110
#     258505
#     268046
#     282927
#     296430
#     306135
#     315526
# 
# Disc length: 4388
# 
# Revision: 3
# Processed by: cddbd v1.5.2PL0 Copyright (c) Steve Scherf et al.
# Submitted via: fre:ac v1.0.31
# 
DISCID=a011221c
DTITLE=Various Artist - Bluesin' By The Bayou - Ain't Broke, Ain't Hungry
DYEAR=2017
DGENRE=Blues
TTITLE0=Mercy Baby - Pleadin'
TTITLE1=Leroy Washington - I've Been in This Prison
TTITLE2=Lightnin' Slim - Little Girl Blues (The Blues and My Woman)
TTITLE3=Ramblin' Hi Harris - I Haven't Got a Home
TTITLE4=Honey Boy Allen - Better Start Doin' It
TTITLE5=Slim Harpo - Cigarettes
TTITLE6=Lightnin' Slim - Hoo Doo Blues
TTITLE7=Polka Dot Slim - Ain't Broke, Ain't Hungry
TTITLE8=Lazy Lester - I'm a Lover Not a Fighter
TTITLE9=Joe Richards - Dreaming Dreaming
TTITLE10=Al Smith - Still in Love with You
TTITLE11=Cookie and The Cupcakes - In the Evening
TTITLE12=Polka Dot Slim - A Thing You Gotta Face
TTITLE13=Jake Jackson - Life Gets Hard
TTITLE14=Barbara Lynn - Sugar Coated Love
TTITLE15=Boozoo Chavis and His Zodico Accordian - Tee Black
TTITLE16=Jimmy Anderson and The Joy Jumpers - Angel Please
TTITLE17=Clarence Garlow - Make Me Cry
TTITLE18=Boozoo Chavis and His Zodico Accordian - Hamburgers and Popcorn
TTITLE19=Lightnin' Slim - I Hate to Leave You Baby
TTITLE20=Al Smith - If I Don't See You
TTITLE21=Ramblin' Hi Harris - Baby, Baby, Baby
TTITLE22=Lightnin' Slim - I Don't Know
TTITLE23=Big Walter - If the Blues Was Money
TTITLE24=Jake Jackson - Somebody Tell Me
TTITLE25=Al Smith - I Love Her So
TTITLE26=T.B. Fisher - Don't Change Your Mind
TTITLE27=(unknown artist) - I'm Gonna Find My Baby
EXTD=
EXTT0=
EXTT1=
EXTT2=
EXTT3=
EXTT4=
EXTT5=
EXTT6=
EXTT7=
EXTT8=
EXTT9=
EXTT10=
EXTT11=
EXTT12=
EXTT13=
EXTT14=
EXTT15=
EXTT16=
EXTT17=
EXTT18=
EXTT19=
EXTT20=
EXTT21=
EXTT22=
EXTT23=
EXTT24=
EXTT25=
EXTT26=
EXTT27=
PLAYORDER=
